<svg xmlns="http://www.w3.org/2000/svg" xmlns:xlink="http://www.w3.org/1999/xlink" id="svg" version="1.1" viewBox="123.29 123.25 153.53 153.45"><g id="svgg"><path id="path0" d="M194.917 123.334 C 193.542 123.413,191.892 123.559,191.250 123.659 C 190.608 123.758,189.521 123.912,188.833 124.001 C 186.465 124.306,184.168 124.748,181.583 125.395 C 181.033 125.533,180.246 125.727,179.833 125.827 C 179.421 125.926,178.896 126.076,178.667 126.158 C 178.438 126.241,177.688 126.469,177.000 126.666 C 176.313 126.863,175.600 127.086,175.417 127.162 C 175.233 127.238,174.296 127.582,173.333 127.928 C 172.371 128.273,171.508 128.605,171.417 128.665 C 171.325 128.726,170.875 128.910,170.417 129.074 C 168.633 129.712,164.080 131.964,161.667 133.401 C 161.254 133.647,160.785 133.891,160.625 133.943 C 160.465 133.996,160.333 134.097,160.333 134.168 C 160.333 134.239,160.146 134.344,159.917 134.402 C 159.688 134.459,159.500 134.580,159.500 134.670 C 159.500 134.760,159.427 134.833,159.337 134.833 C 159.162 134.833,155.228 137.429,154.863 137.786 C 154.741 137.904,154.291 138.240,153.863 138.531 C 153.434 138.823,153.046 139.106,153.000 139.160 C 152.954 139.214,152.401 139.664,151.771 140.160 C 147.968 143.153,143.153 147.968,140.160 151.771 C 139.664 152.401,139.214 152.954,139.160 153.000 C 139.106 153.046,138.823 153.434,138.531 153.863 C 138.240 154.291,137.904 154.741,137.786 154.863 C 137.429 155.228,134.833 159.162,134.833 159.337 C 134.833 159.427,134.760 159.500,134.670 159.500 C 134.580 159.500,134.459 159.688,134.402 159.917 C 134.344 160.146,134.239 160.333,134.168 160.333 C 134.097 160.333,133.996 160.465,133.943 160.625 C 133.891 160.785,133.647 161.254,133.401 161.667 C 131.922 164.150,129.732 168.578,129.074 170.417 C 128.910 170.875,128.726 171.325,128.665 171.417 C 128.605 171.508,128.273 172.371,127.928 173.333 C 127.582 174.296,127.238 175.233,127.162 175.417 C 127.086 175.600,126.863 176.313,126.666 177.000 C 126.469 177.688,126.241 178.438,126.158 178.667 C 126.076 178.896,125.926 179.421,125.827 179.833 C 125.727 180.246,125.533 181.033,125.395 181.583 C 124.513 185.102,123.967 188.349,123.474 193.000 C 123.234 195.264,123.234 204.736,123.474 207.000 C 123.967 211.651,124.513 214.898,125.395 218.417 C 125.533 218.967,125.727 219.754,125.827 220.167 C 125.926 220.579,126.076 221.104,126.158 221.333 C 126.241 221.563,126.469 222.313,126.666 223.000 C 126.863 223.688,127.085 224.400,127.161 224.583 C 127.237 224.767,127.541 225.592,127.836 226.417 C 128.132 227.242,128.474 228.142,128.596 228.417 C 128.718 228.692,128.964 229.292,129.142 229.750 C 129.992 231.936,131.998 235.978,133.401 238.333 C 133.647 238.746,133.891 239.215,133.943 239.375 C 133.996 239.535,134.105 239.667,134.186 239.667 C 134.267 239.667,134.333 239.764,134.333 239.883 C 134.333 240.002,134.446 240.245,134.583 240.424 C 134.721 240.603,135.448 241.688,136.199 242.833 C 136.950 243.979,137.699 245.060,137.862 245.236 C 138.026 245.412,138.368 245.860,138.622 246.233 C 139.155 247.015,139.174 247.039,141.012 249.250 C 144.331 253.242,149.008 257.774,152.753 260.629 C 154.689 262.104,157.010 263.752,158.114 264.436 C 158.830 264.879,159.516 265.338,159.637 265.454 C 159.758 265.571,159.934 265.667,160.028 265.667 C 160.122 265.667,160.398 265.808,160.641 265.980 C 162.133 267.039,167.713 269.871,170.250 270.858 C 170.708 271.036,171.308 271.282,171.583 271.404 C 171.858 271.526,172.758 271.868,173.583 272.164 C 174.408 272.459,175.233 272.763,175.417 272.839 C 175.600 272.915,176.313 273.137,177.000 273.334 C 177.688 273.531,178.438 273.759,178.667 273.842 C 178.896 273.924,179.421 274.074,179.833 274.173 C 180.246 274.273,181.033 274.467,181.583 274.605 C 185.069 275.478,188.309 276.023,193.000 276.525 C 195.257 276.766,204.729 276.767,207.000 276.526 C 212.539 275.939,218.679 274.788,221.333 273.840 C 221.563 273.758,222.313 273.531,223.000 273.334 C 223.688 273.137,224.400 272.914,224.583 272.838 C 224.767 272.762,225.704 272.417,226.667 272.071 C 229.919 270.902,235.563 268.306,237.473 267.101 C 237.851 266.862,238.195 266.667,238.238 266.667 C 238.401 266.667,240.419 265.436,240.472 265.305 C 240.503 265.229,240.595 265.167,240.677 265.167 C 240.820 265.167,244.830 262.540,245.000 262.335 C 245.046 262.279,245.346 262.053,245.667 261.831 C 245.987 261.609,246.337 261.350,246.444 261.255 C 246.551 261.161,246.887 260.896,247.190 260.667 C 248.919 259.364,251.878 256.755,253.923 254.731 C 256.597 252.086,257.716 250.861,259.770 248.333 C 261.898 245.713,264.684 241.743,265.947 239.531 C 267.582 236.667,268.443 235.081,268.998 233.917 C 270.007 231.797,270.833 229.983,270.833 229.888 C 270.833 229.840,270.944 229.564,271.078 229.275 C 271.469 228.439,272.913 224.512,273.234 223.417 C 273.395 222.867,273.594 222.229,273.675 222.000 C 274.341 220.136,275.552 214.524,276.158 210.500 C 276.754 206.534,277.014 198.511,276.673 194.583 C 276.331 190.655,275.904 187.339,275.514 185.583 C 275.432 185.217,275.278 184.467,275.171 183.917 C 274.949 182.780,273.901 178.630,273.676 178.000 C 273.594 177.771,273.395 177.133,273.234 176.583 C 272.913 175.488,271.469 171.561,271.078 170.725 C 270.944 170.436,270.833 170.152,270.833 170.093 C 270.833 169.983,270.335 168.893,269.077 166.250 C 268.451 164.934,267.757 163.652,265.920 160.417 C 265.275 159.282,262.735 155.495,261.728 154.167 C 259.127 150.737,257.353 148.690,254.500 145.827 C 252.102 143.421,250.167 141.668,248.250 140.166 C 247.608 139.664,246.940 139.122,246.764 138.963 C 246.588 138.804,246.138 138.466,245.764 138.212 C 245.390 137.959,245.046 137.709,245.000 137.658 C 244.808 137.443,240.813 134.833,240.677 134.833 C 240.595 134.833,240.503 134.771,240.472 134.695 C 240.419 134.564,238.401 133.333,238.238 133.333 C 238.195 133.333,237.852 133.139,237.477 132.902 C 234.607 131.090,227.083 127.851,223.000 126.670 C 222.313 126.471,221.563 126.242,221.333 126.160 C 218.687 125.215,211.957 123.950,207.167 123.497 C 204.736 123.267,197.709 123.174,194.917 123.334 M198.000 136.143 L 198.000 144.953 196.625 145.052 C 193.345 145.290,191.033 145.621,188.167 146.263 C 186.031 146.742,182.905 147.646,181.583 148.167 C 181.400 148.239,180.875 148.430,180.417 148.591 C 174.957 150.512,167.560 155.142,162.855 159.583 C 160.997 161.336,159.242 163.147,157.958 164.633 C 156.824 165.947,154.136 169.687,152.904 171.667 C 152.119 172.928,149.585 178.017,149.170 179.167 C 148.955 179.762,148.727 180.325,148.662 180.417 C 148.521 180.618,147.648 183.198,147.252 184.583 C 146.292 187.944,145.844 190.103,145.508 193.000 C 145.084 196.645,145.000 197.804,145.000 200.000 C 145.000 202.196,145.084 203.355,145.508 207.000 C 145.794 209.466,146.019 210.625,146.835 213.833 C 147.395 216.039,148.223 218.635,148.668 219.583 C 148.754 219.767,148.979 220.321,149.169 220.816 C 149.601 221.942,151.478 225.775,152.204 227.015 C 153.203 228.719,154.565 230.914,154.742 231.105 C 154.838 231.208,155.029 231.460,155.167 231.665 C 155.490 232.147,156.520 233.527,156.744 233.777 C 156.839 233.884,157.404 234.577,158.000 235.317 C 159.115 236.702,163.105 240.722,164.583 241.950 C 166.223 243.312,166.532 243.554,167.633 244.347 C 168.248 244.789,168.825 245.213,168.917 245.289 C 169.008 245.365,169.383 245.610,169.750 245.832 C 170.117 246.055,170.516 246.334,170.637 246.452 C 170.758 246.570,170.958 246.667,171.081 246.667 C 171.205 246.667,171.331 246.725,171.361 246.797 C 171.430 246.959,172.332 247.494,174.118 248.435 C 174.870 248.831,175.620 249.228,175.785 249.318 C 180.829 252.066,188.238 254.115,195.792 254.851 L 198.000 255.066 198.000 263.863 L 198.000 272.660 197.292 272.586 C 196.902 272.545,195.683 272.470,194.583 272.421 C 192.127 272.309,187.614 271.698,185.250 271.157 C 182.423 270.511,181.519 270.294,181.083 270.162 C 180.808 270.078,180.021 269.850,179.333 269.656 C 178.103 269.309,176.905 268.925,176.250 268.667 C 176.067 268.594,175.542 268.406,175.083 268.248 C 169.432 266.296,161.097 261.772,156.583 258.207 C 156.492 258.134,155.929 257.703,155.333 257.249 C 152.422 255.027,148.458 251.299,145.666 248.155 C 137.109 238.519,131.210 226.657,128.762 214.167 C 127.133 205.854,126.950 196.814,128.247 188.667 C 128.611 186.376,129.273 183.246,129.762 181.500 C 129.903 180.996,130.135 180.171,130.277 179.667 C 134.242 165.579,143.731 151.599,155.333 142.751 C 155.929 142.297,156.492 141.866,156.583 141.793 C 162.378 137.215,171.713 132.518,179.333 130.347 C 180.021 130.151,180.808 129.922,181.083 129.838 C 181.358 129.755,182.258 129.531,183.083 129.342 C 183.908 129.153,184.846 128.930,185.167 128.847 C 185.487 128.763,186.088 128.647,186.500 128.590 C 186.912 128.532,187.588 128.418,188.000 128.336 C 189.580 128.023,192.863 127.643,195.093 127.516 C 196.371 127.442,197.548 127.372,197.708 127.358 C 197.983 127.335,198.000 127.855,198.000 136.143 M206.750 127.673 C 209.817 127.949,212.997 128.439,215.833 129.074 C 216.429 129.207,217.292 129.398,217.750 129.498 C 218.208 129.598,218.714 129.752,218.873 129.840 C 219.032 129.928,219.263 130.000,219.386 130.000 C 219.510 130.000,220.129 130.159,220.764 130.353 C 228.096 132.594,234.656 135.730,240.909 139.982 C 242.649 141.165,242.887 141.336,243.381 141.755 C 243.492 141.850,243.846 142.112,244.167 142.336 C 244.487 142.561,244.900 142.870,245.083 143.022 C 248.554 145.908,248.645 145.991,251.327 148.673 C 254.009 151.355,254.092 151.446,256.978 154.917 C 257.130 155.100,257.439 155.512,257.665 155.833 C 258.084 156.431,258.284 156.692,258.593 157.047 C 260.052 158.729,263.356 164.247,265.349 168.333 C 267.311 172.356,268.612 175.681,269.653 179.333 C 269.849 180.021,270.078 180.808,270.162 181.083 C 270.294 181.519,270.511 182.423,271.157 185.250 C 273.073 193.620,273.073 206.380,271.157 214.750 C 270.511 217.577,270.294 218.481,270.162 218.917 C 270.078 219.192,269.849 219.979,269.653 220.667 C 269.020 222.887,267.463 227.197,266.672 228.917 C 264.240 234.203,261.576 238.894,259.182 242.106 C 259.036 242.301,258.804 242.629,258.667 242.834 C 258.529 243.040,258.339 243.292,258.245 243.395 C 258.150 243.499,257.888 243.846,257.664 244.167 C 257.439 244.487,257.129 244.900,256.975 245.083 C 256.821 245.267,256.418 245.754,256.079 246.167 C 253.500 249.307,249.307 253.500,246.167 256.079 C 244.885 257.132,244.748 257.243,244.442 257.488 C 244.169 257.706,243.617 257.199,237.833 251.416 L 231.522 245.107 232.674 244.244 C 240.644 238.282,246.765 230.577,250.677 221.583 C 251.265 220.232,252.041 218.156,252.484 216.750 C 253.277 214.236,253.290 214.188,253.636 212.667 C 254.333 209.598,254.465 208.832,254.854 205.583 C 255.087 203.638,255.087 196.160,254.853 194.333 C 254.534 191.836,254.349 190.605,254.151 189.667 C 253.801 188.005,253.317 185.925,253.162 185.417 C 253.078 185.142,252.850 184.392,252.656 183.750 C 251.234 179.052,247.882 172.152,245.451 168.917 C 245.157 168.525,244.804 168.035,244.667 167.827 C 243.679 166.334,240.693 162.850,238.816 161.001 C 233.813 156.074,227.671 151.912,221.750 149.436 C 220.925 149.091,220.014 148.702,219.725 148.571 C 219.436 148.440,219.092 148.333,218.961 148.333 C 218.830 148.333,218.667 148.278,218.600 148.211 C 218.370 147.981,214.487 146.828,212.083 146.276 C 209.799 145.751,206.249 145.239,203.625 145.056 L 202.167 144.954 202.167 136.184 L 202.167 127.414 203.542 127.461 C 204.298 127.487,205.742 127.583,206.750 127.673 M198.000 173.500 L 198.000 197.833 173.644 197.833 L 149.288 197.833 149.405 196.042 C 149.659 192.136,151.017 185.792,152.178 183.083 C 152.257 182.900,152.597 182.037,152.933 181.167 C 157.633 169.015,169.385 157.156,180.917 152.930 C 181.375 152.762,181.975 152.528,182.250 152.410 C 182.966 152.102,185.631 151.210,186.417 151.014 C 186.783 150.923,187.533 150.730,188.083 150.586 C 190.344 149.992,195.218 149.233,197.042 149.189 L 198.000 149.167 198.000 173.500 M205.555 149.419 C 209.197 149.872,212.921 150.680,215.667 151.613 C 217.044 152.082,220.806 153.557,221.282 153.815 C 221.448 153.905,221.958 154.152,222.417 154.363 C 222.875 154.574,223.978 155.179,224.867 155.707 C 225.757 156.235,226.557 156.667,226.645 156.667 C 226.733 156.667,226.831 156.726,226.861 156.799 C 226.892 156.871,227.217 157.109,227.583 157.328 C 231.304 159.542,236.814 164.582,239.970 168.658 C 240.577 169.442,241.115 170.121,241.165 170.167 C 241.348 170.334,243.289 173.271,243.698 174.000 C 243.930 174.412,244.291 175.050,244.500 175.417 C 244.978 176.255,246.224 178.727,246.558 179.500 C 246.696 179.821,246.955 180.421,247.132 180.833 C 247.310 181.246,247.584 181.958,247.742 182.417 C 247.900 182.875,248.088 183.365,248.160 183.505 C 248.232 183.646,248.348 184.019,248.417 184.333 C 248.486 184.648,248.603 185.021,248.676 185.161 C 248.750 185.302,248.896 185.754,249.001 186.167 C 249.106 186.579,249.301 187.329,249.434 187.833 C 251.550 195.811,251.359 205.881,248.942 213.917 C 248.804 214.375,248.606 215.050,248.501 215.417 C 248.397 215.783,248.204 216.320,248.073 216.609 C 247.941 216.897,247.833 217.217,247.833 217.319 C 247.833 217.421,247.765 217.635,247.681 217.794 C 247.596 217.953,247.251 218.758,246.912 219.583 C 245.871 222.117,243.141 227.160,242.130 228.417 C 242.056 228.508,241.400 229.386,240.672 230.368 C 237.682 234.399,232.784 239.142,229.003 241.667 C 228.797 241.804,228.468 242.038,228.272 242.187 C 227.063 243.107,222.595 245.577,220.500 246.484 C 219.996 246.702,219.283 247.013,218.917 247.175 C 218.228 247.480,214.947 248.593,213.333 249.069 C 211.081 249.734,207.437 250.351,203.292 250.768 L 202.167 250.881 202.167 242.357 C 202.167 235.652,202.211 233.832,202.375 233.828 C 203.588 233.795,206.978 233.218,209.167 232.672 C 216.359 230.879,223.952 225.275,228.447 218.444 C 236.035 206.910,235.752 191.438,227.752 180.476 C 225.850 177.870,224.917 176.849,221.879 174.053 C 221.262 173.484,218.423 171.463,217.333 170.817 C 213.187 168.355,208.629 166.813,204.021 166.313 L 202.167 166.112 202.167 157.639 L 202.167 149.167 202.847 149.167 C 203.221 149.167,204.439 149.280,205.555 149.419 M204.083 170.518 C 205.744 170.722,208.658 171.436,210.083 171.989 C 211.315 172.467,211.671 172.628,213.083 173.346 C 215.661 174.657,215.489 174.551,217.750 176.226 C 220.368 178.165,222.947 180.914,225.129 184.092 C 225.592 184.766,226.775 187.084,227.676 189.083 C 228.531 190.980,229.597 195.492,229.656 197.458 L 229.667 197.833 215.917 197.833 L 202.167 197.833 202.167 184.083 C 202.167 173.194,202.210 170.333,202.375 170.334 C 202.490 170.334,203.258 170.417,204.083 170.518 M198.000 226.441 L 198.000 250.882 196.958 250.776 C 193.674 250.444,192.603 250.311,191.250 250.064 C 189.132 249.677,185.032 248.618,183.917 248.169 C 183.733 248.096,183.208 247.905,182.750 247.745 C 182.019 247.491,181.619 247.330,180.083 246.672 C 162.926 239.328,150.582 222.068,149.399 203.769 L 149.284 202.000 173.642 202.000 L 198.000 202.000 198.000 226.441 M229.667 202.213 C 229.667 204.163,228.541 208.956,227.563 211.167 C 226.790 212.916,225.013 216.200,224.677 216.500 C 224.625 216.546,224.325 216.958,224.009 217.417 C 222.481 219.632,219.595 222.519,217.417 224.012 C 216.958 224.326,216.546 224.625,216.500 224.677 C 215.203 226.132,207.847 228.991,204.333 229.406 C 203.829 229.465,203.135 229.555,202.792 229.605 L 202.167 229.696 202.167 215.848 L 202.167 202.000 215.917 202.000 C 226.956 202.000,229.667 202.042,229.667 202.213 M234.273 253.857 L 240.631 260.213 239.814 260.763 C 237.119 262.577,233.203 264.700,228.917 266.672 C 227.197 267.463,222.887 269.020,220.667 269.653 C 219.979 269.849,219.192 270.078,218.917 270.162 C 218.642 270.245,217.742 270.470,216.917 270.659 C 216.092 270.849,215.117 271.074,214.750 271.159 C 212.377 271.707,207.771 272.321,205.254 272.426 C 204.060 272.475,202.877 272.548,202.625 272.587 L 202.167 272.658 202.167 263.829 L 202.167 255.000 202.708 255.000 C 203.006 255.000,203.850 254.927,204.583 254.838 C 208.155 254.402,208.822 254.314,209.750 254.160 C 211.204 253.919,214.387 253.165,215.333 252.838 C 215.563 252.758,216.200 252.562,216.750 252.401 C 219.284 251.661,221.599 250.688,225.083 248.897 C 226.550 248.143,227.787 247.520,227.833 247.513 C 227.878 247.506,230.776 250.360,234.273 253.857 " stroke="none" fill="#fff" fill-rule="evenodd"/><path id="path1" d="" stroke="none" fill="#fff" fill-rule="evenodd"/><path id="path2" d="" stroke="none" fill="#fff" fill-rule="evenodd"/><path id="path3" d="" stroke="none" fill="#fff" fill-rule="evenodd"/><path id="path4" d="" stroke="none" fill="#281c24" fill-rule="evenodd"/></g></svg>