<?xml version="1.0" encoding="utf-8"?>
<svg viewBox="978.75 1058.737 2046.587 1871.174" style="enable-background:new 0 0 4000 4000;" xmlns="http://www.w3.org/2000/svg">
  <defs>
    <style type="text/css">
	
		.st0{fill-rule:evenodd;clip-rule:evenodd;fill:none;stroke:#fff;stroke-width:40;stroke-linecap:round;stroke-linejoin:round;stroke-miterlimit:10;}
</style>
  </defs>
  <g>
    <path class="st0" d="M1471.2,1999.9h844.5"/>
    <path class="st0" d="M2000.2,1681.3c174.7,0,318.5,143.8,318.5,318.5s-143.8,318.5-318.5,318.5"/>
    <path class="st0" d="M2283.6,2449.6c82.8,82.8,146.1,146.1,146.1,146.1"/>
    <path class="st0" d="M2000.7,1470.3c290.5,0,529.5,239,529.5,529.5c0,290.5-239,529.5-529.5,529.5"/>
    <path class="st0" d="M2000.7,1470.3c-290.5,0-529.5,239-529.5,529.5c0,290.5,239,529.5,529.5,529.5"/>
    <path class="st0" d="M2000.7,1254v1486.7"/>
    <path class="st0" d="M2000,1252.5c412.9,0,747.5,334.7,747.5,747.5s-334.7,747.5-747.5,747.5s-747.5-334.7-747.5-747.5 S1587.1,1252.5,2000,1252.5z"/>
  </g>
</svg>