<svg width="410.696" height="92.09" viewBox="0 0 410.696 92.09" xmlns="http://www.w3.org/2000/svg"><g id="svgGroup" stroke-linecap="round" fill-rule="evenodd" font-size="9pt" stroke="#000" stroke-width="0.25mm" fill="black" style="stroke:#000;stroke-width:0.25mm;fill:black"><path d="M 234.719 59.912 L 234.67 27.881 L 229.055 28.125 Q 226.418 28.125 226.418 26.123 A 1.969 1.969 0 0 1 226.642 25.155 Q 227.09 24.346 228.433 24.17 A 6.305 6.305 0 0 1 229.25 24.121 L 233.937 24.316 L 234.67 24.316 L 234.67 16.748 L 255.617 7.373 L 255.617 24.316 L 262.16 24.316 L 266.799 24.121 A 5.995 5.995 0 0 1 267.814 24.199 Q 269.627 24.513 269.678 26.08 A 2.823 2.823 0 0 1 269.68 26.172 A 1.694 1.694 0 0 1 269.525 26.904 Q 269.358 27.258 269.009 27.519 A 2.191 2.191 0 0 1 268.874 27.612 A 3.294 3.294 0 0 1 267.233 28.121 A 3.983 3.983 0 0 1 267.043 28.125 L 260.988 27.881 L 255.617 27.881 L 255.617 73.779 A 17.342 17.342 0 0 0 260.232 73.111 A 13.553 13.553 0 0 0 265.139 70.508 Q 266.945 69.141 267.702 66.992 Q 268.428 64.931 269.019 64.286 A 1.647 1.647 0 0 1 269.069 64.233 A 2.089 2.089 0 0 1 269.757 63.766 A 1.971 1.971 0 0 1 270.51 63.623 A 1.808 1.808 0 0 1 271.851 64.202 A 2.422 2.422 0 0 1 271.926 64.282 A 2.274 2.274 0 0 1 272.512 65.845 A 3.97 3.97 0 0 1 272.405 66.734 Q 272.313 67.13 272.145 67.558 A 7.403 7.403 0 0 1 272.023 67.847 Q 271.604 68.791 270.824 69.825 A 15.177 15.177 0 0 1 270.559 70.166 Q 268.361 72.9 265.48 74.512 A 23.375 23.375 0 0 1 255.048 77.367 A 27.701 27.701 0 0 1 253.859 77.393 Q 237.554 77.393 235.139 64.707 A 25.663 25.663 0 0 1 234.719 59.912 Z M 157.668 52.149 L 125.441 52.149 L 125.441 73.096 A 31.94 31.94 0 0 0 128.969 73.608 A 43.326 43.326 0 0 0 132.912 73.779 A 21.134 21.134 0 0 0 147.902 67.969 A 38.427 38.427 0 0 0 148.491 67.368 Q 149.099 66.732 149.478 66.265 A 7.839 7.839 0 0 0 149.709 65.967 Q 150.832 64.6 152.004 64.6 A 2.991 2.991 0 0 1 152.734 64.681 Q 153.908 64.977 153.908 66.358 A 2.623 2.623 0 0 1 153.708 67.316 Q 153.394 68.116 152.584 69.057 A 12.208 12.208 0 0 1 152.199 69.483 Q 144.484 77.393 131.057 77.393 A 33.054 33.054 0 0 1 120.587 75.794 A 28.164 28.164 0 0 1 110.744 70.117 A 24.312 24.312 0 0 1 102.233 52.419 A 30.36 30.36 0 0 1 102.199 50.977 A 29.595 29.595 0 0 1 103.676 41.441 A 25.022 25.022 0 0 1 109.914 31.543 A 27.327 27.327 0 0 1 124.787 24.009 A 38.827 38.827 0 0 1 131.594 23.438 A 29.44 29.44 0 0 1 140.922 24.862 A 25.05 25.05 0 0 1 149.807 30.029 Q 157.766 37.109 157.766 48.633 A 63.591 63.591 0 0 1 157.719 51.008 A 75.203 75.203 0 0 1 157.668 52.149 Z M 337.844 74.316 L 337.844 92.09 L 317.775 92.09 L 317.775 24.316 L 337.844 24.316 L 337.844 27.002 A 28.308 28.308 0 0 1 345.543 24.026 A 24.956 24.956 0 0 1 350.93 23.438 A 38.102 38.102 0 0 1 356.858 23.877 A 28.218 28.218 0 0 1 362.746 25.44 A 27.372 27.372 0 0 1 369.232 29.003 A 24.65 24.65 0 0 1 371.535 30.957 Q 379.103 38.379 379.103 49.951 A 29.939 29.939 0 0 1 377.57 59.715 A 25.647 25.647 0 0 1 371.633 69.336 A 25.671 25.671 0 0 1 356.573 76.979 A 36.451 36.451 0 0 1 350.978 77.393 A 29.781 29.781 0 0 1 337.844 74.316 Z M 24.025 27.393 L 24.025 73.34 A 24.481 24.481 0 0 0 28.64 73.779 Q 30.959 73.779 33.132 73.413 A 25.31 25.31 0 0 0 36.89 72.489 A 23.175 23.175 0 0 0 37.258 72.363 Q 40.869 71.089 43.26 69.223 A 14.488 14.488 0 0 0 43.947 68.652 A 16.34 16.34 0 0 1 44.688 68.046 Q 45.935 67.09 46.584 67.09 A 3.02 3.02 0 0 1 47.284 67.164 Q 48.225 67.389 48.4 68.3 A 2.396 2.396 0 0 1 48.439 68.75 Q 48.439 70.045 46.599 71.725 A 16.952 16.952 0 0 1 45.412 72.705 A 27.631 27.631 0 0 1 34.265 76.958 A 36.651 36.651 0 0 1 28.518 77.393 A 34.778 34.778 0 0 1 19.237 76.215 A 26.094 26.094 0 0 1 7.766 69.678 A 25.577 25.577 0 0 1 0.191 53.591 A 34.999 34.999 0 0 1 0.002 49.902 A 26.306 26.306 0 0 1 1.938 39.678 A 24.77 24.77 0 0 1 8.254 30.859 Q 16.457 23.438 28.859 23.438 Q 35.939 23.438 42.482 26.367 A 21.451 21.451 0 0 1 44.3 27.246 Q 47.463 28.982 47.463 30.811 Q 47.463 31.787 46.901 32.3 A 2.067 2.067 0 0 1 46.387 32.65 A 1.7 1.7 0 0 1 45.656 32.813 A 2.516 2.516 0 0 1 44.958 32.703 Q 44.127 32.462 43.019 31.69 A 13.467 13.467 0 0 0 39.724 29.421 Q 37.16 28.138 33.596 27.441 A 23.162 23.162 0 0 0 30.93 27.086 A 29.486 29.486 0 0 0 28.664 27.002 A 31.151 31.151 0 0 0 26.603 27.067 Q 25.628 27.131 24.775 27.261 A 16.469 16.469 0 0 0 24.025 27.393 Z M 59.572 76.465 L 59.572 24.316 L 80.568 24.316 L 80.568 39.649 Q 83.861 31.49 87.642 27.55 A 17.899 17.899 0 0 1 87.819 27.368 A 17.477 17.477 0 0 1 90.187 25.338 Q 91.603 24.343 93.021 23.869 A 8.117 8.117 0 0 1 95.607 23.438 Q 97.518 23.438 98.745 24.305 A 4.085 4.085 0 0 1 99.099 24.585 A 4.516 4.516 0 0 1 99.835 25.406 A 3.028 3.028 0 0 1 100.393 27.149 A 8.339 8.339 0 0 1 100.35 28.015 Q 100.306 28.439 100.215 28.792 A 3.422 3.422 0 0 1 100.002 29.395 A 4.584 4.584 0 0 1 99.169 30.622 A 4.317 4.317 0 0 1 98.976 30.811 A 6.436 6.436 0 0 1 98.217 31.421 Q 97.315 32.031 96.486 32.031 A 14.093 14.093 0 0 1 95.545 32.002 Q 94.661 31.943 94.08 31.762 A 2.982 2.982 0 0 1 93.752 31.641 A 9.418 9.418 0 0 0 92.708 31.238 Q 92.165 31.067 91.674 31 A 4.511 4.511 0 0 0 91.066 30.957 A 2.009 2.009 0 0 0 90.293 31.132 Q 89.344 31.53 88.088 32.837 A 15.348 15.348 0 0 0 86.651 34.593 Q 86 35.509 85.37 36.626 A 31.794 31.794 0 0 0 84.621 38.037 A 38.755 38.755 0 0 0 80.568 55.615 L 80.568 76.465 L 59.572 76.465 Z M 166.425 43.51 A 28.058 28.058 0 0 0 165.676 50.098 A 34.61 34.61 0 0 0 165.686 50.93 A 26.158 26.158 0 0 0 173.732 69.824 A 26.126 26.126 0 0 0 183.715 75.892 A 31.022 31.022 0 0 0 193.557 77.393 A 35.647 35.647 0 0 0 196.185 77.297 A 26.472 26.472 0 0 0 213.674 69.434 A 25.736 25.736 0 0 0 219.504 60.478 A 28.439 28.439 0 0 0 221.291 50.244 A 33.549 33.549 0 0 0 221.226 48.137 A 25.25 25.25 0 0 0 213.869 31.348 A 25.383 25.383 0 0 0 203.195 24.794 A 31.445 31.445 0 0 0 193.752 23.438 A 36.342 36.342 0 0 0 190.97 23.542 A 27.401 27.401 0 0 0 173.635 31.055 A 26.115 26.115 0 0 0 167.8 39.429 A 23.977 23.977 0 0 0 166.425 43.51 Z M 280.812 76.465 L 280.812 24.316 L 301.809 24.316 L 301.809 76.465 L 280.812 76.465 Z M 192.189 27.051 L 192.189 73.731 A 6.293 6.293 0 0 0 192.971 73.779 L 193.654 73.779 A 26.291 26.291 0 0 0 202.204 72.438 A 22.614 22.614 0 0 0 210.207 67.676 Q 217.336 61.084 217.336 50.391 A 26.57 26.57 0 0 0 216.232 42.553 A 21.172 21.172 0 0 0 210.646 33.447 A 22.345 22.345 0 0 0 197.388 27.229 A 30.669 30.669 0 0 0 193.605 27.002 L 192.873 27.002 A 4.828 4.828 0 0 0 192.189 27.051 Z M 337.844 31.006 L 337.844 69.971 Q 344.435 73.779 352.199 73.779 L 353.469 73.779 A 6.373 6.373 0 0 0 354.423 73.71 A 5.763 5.763 0 0 0 354.592 73.682 L 354.592 27.295 A 24.07 24.07 0 0 0 350.832 27.002 Q 343.605 27.002 337.844 31.006 Z M 138.967 48.584 L 138.967 27.93 A 22.463 22.463 0 0 0 135.247 27.193 A 30.061 30.061 0 0 0 131.789 27.002 A 48.814 48.814 0 0 0 129.449 27.054 Q 127.053 27.17 125.441 27.539 L 125.441 48.584 L 138.967 48.584 Z M 387.893 67.041 A 11.585 11.585 0 0 0 388.625 71.143 A 9.673 9.673 0 0 0 390.681 74.415 Q 393.578 77.393 399.172 77.393 A 15.484 15.484 0 0 0 399.765 77.381 A 12.189 12.189 0 0 0 407.375 74.512 A 11.247 11.247 0 0 0 407.921 74.023 A 8.582 8.582 0 0 0 410.695 67.578 A 10.138 10.138 0 0 0 407.766 60.352 A 10.297 10.297 0 0 0 403.308 57.539 A 12.704 12.704 0 0 0 399.465 56.983 A 15.393 15.393 0 0 0 397.875 57.063 A 11.564 11.564 0 0 0 391.164 59.961 A 9.777 9.777 0 0 0 388.747 63.11 A 8.422 8.422 0 0 0 388.26 64.379 A 9.397 9.397 0 0 0 387.893 67.041 Z M 288.002 15.53 A 18.197 18.197 0 0 0 291.066 15.772 Q 296.096 15.772 299.318 13.574 A 9.309 9.309 0 0 0 300.876 12.261 A 5.769 5.769 0 0 0 302.541 8.203 A 6.533 6.533 0 0 0 301.375 4.452 A 9.07 9.07 0 0 0 299.709 2.637 A 10.117 10.117 0 0 0 298.247 1.635 A 12.87 12.87 0 0 0 296.267 0.733 A 7.879 7.879 0 0 0 295.96 0.629 Q 294.623 0.207 292.634 0.068 A 30.346 30.346 0 0 0 290.529 0 A 11.347 11.347 0 0 0 287.136 0.515 A 13.015 13.015 0 0 0 283.498 2.344 A 9.212 9.212 0 0 0 281.918 3.726 A 5.688 5.688 0 0 0 280.373 7.617 Q 280.373 9.363 281.016 10.786 A 7.348 7.348 0 0 0 283.205 13.525 Q 285.108 15.035 288.002 15.53 Z" vector-effect="non-scaling-stroke"/></g></svg>