
<svg version="1.0" xmlns="http://www.w3.org/2000/svg"
 width="1624.000000pt" height="1623.000000pt" viewBox="0 0 1624.000000 1623.000000"
 preserveAspectRatio="xMidYMid meet">

<g transform="translate(0.000000,1623.000000) scale(0.100000,-0.100000)"
fill="#000000" stroke="none">
<path d="M7670 15714 c-19 -2 -102 -8 -185 -14 -1158 -84 -2319 -452 -3335
-1058 -741 -442 -1412 -1017 -1985 -1702 -230 -275 -526 -700 -719 -1030 -126
-215 -332 -627 -431 -860 -345 -816 -538 -1640 -596 -2548 -23 -358 -3 -1005
41 -1372 161 -1324 665 -2587 1455 -3650 1060 -1425 2578 -2442 4285 -2870
419 -106 812 -170 1285 -212 234 -20 1019 -17 1255 5 718 68 1345 207 1971
437 1873 686 3398 2064 4274 3862 418 860 656 1733 747 2748 20 228 17 1026
-5 1260 -95 998 -341 1877 -762 2729 -485 981 -1142 1813 -1995 2526 -275 230
-700 526 -1030 719 -212 124 -624 331 -856 429 -804 342 -1629 536 -2532 597
-137 9 -792 12 -882 4z m220 -1282 l0 -888 -172 -12 c-1382 -94 -2666 -706
-3628 -1727 -552 -585 -968 -1283 -1221 -2045 -344 -1040 -367 -2154 -64
-3208 213 -744 574 -1417 1091 -2037 133 -159 457 -486 619 -624 913 -780
2028 -1239 3203 -1320 85 -6 158 -11 163 -11 5 0 9 -355 9 -892 l0 -891 -160
7 c-711 30 -1474 184 -2148 432 -849 313 -1607 762 -2294 1361 -158 137 -544
523 -681 681 -1066 1224 -1677 2702 -1787 4322 -15 212 -15 728 0 940 105
1556 680 2997 1665 4179 1207 1450 2921 2375 4780 2580 234 26 389 38 523 40
l102 1 0 -888z m860 862 c1389 -130 2675 -636 3775 -1484 437 -337 897 -791
1256 -1240 963 -1205 1519 -2718 1568 -4272 35 -1121 -165 -2163 -614 -3193
-73 -167 -270 -552 -369 -720 -456 -776 -1047 -1457 -1763 -2033 -55 -45 -105
-82 -110 -82 -4 0 -294 286 -645 637 l-636 636 95 69 c544 394 1047 929 1411
1500 398 625 667 1323 786 2038 58 349 70 502 71 895 0 367 -7 474 -51 783
-145 1023 -575 1967 -1271 2791 -125 148 -433 457 -588 590 -160 137 -408 324
-580 437 -577 378 -1245 655 -1900 788 -259 53 -684 106 -847 106 l-48 0 0
891 0 892 153 -7 c83 -4 222 -14 307 -22z m-860 -4599 l0 -2445 -2445 0 -2445
0 0 63 c0 131 35 433 75 654 357 1945 1860 3546 3780 4026 329 83 717 141 957
146 l78 1 0 -2445z m666 2430 c1239 -119 2374 -677 3236 -1592 768 -815 1238
-1835 1363 -2954 23 -198 31 -652 16 -864 -85 -1211 -587 -2329 -1441 -3208
-412 -425 -885 -768 -1419 -1031 -606 -299 -1219 -461 -1929 -512 l-92 -6 2
858 3 859 90 7 c270 22 602 98 867 197 789 297 1444 878 1834 1626 195 374
314 774 365 1225 18 155 15 527 -5 695 -119 994 -653 1870 -1482 2432 -371
251 -786 425 -1224 513 -124 25 -377 60 -432 60 -17 0 -18 47 -18 855 l0 855
53 0 c30 0 125 -7 213 -15z m20 -2131 c442 -72 895 -264 1264 -537 694 -513
1137 -1291 1215 -2134 l7 -73 -1386 0 -1386 0 0 1391 0 1391 68 -7 c37 -3 135
-17 218 -31z m-686 -5590 l0 -2446 -88 6 c-736 55 -1314 207 -1927 506 -1249
610 -2197 1696 -2634 3017 -125 377 -219 866 -238 1233 l-6 130 2446 0 2447 0
0 -2446z m3166 2379 c-92 -915 -584 -1727 -1346 -2226 -421 -275 -865 -430
-1372 -480 l-48 -5 0 1389 0 1389 1386 0 1386 0 -6 -67z m1021 -5812 c-852
-571 -1904 -971 -2942 -1120 -258 -37 -630 -71 -782 -71 l-63 0 0 889 0 889
88 7 c702 51 1252 179 1837 427 152 65 442 208 570 282 l80 46 647 -647 647
-647 -82 -55z"/>
</g>
</svg>
